# xmcd
#
# Track frame offsets: 
#        150
#        15330
#        33900
#        45442
#        63182
#        76977
#        95475
#        112352
#        126862
#        139977
#        153622
#        165215
#        189907
#        204722
#        217627
#        231642
#        247072
#        259872
#        270880
#        283810
#        298735
#        316265
#        329492
#
# Disc length: 4543 seconds
#
# Revision: 9
# Processed by: cddbd v1.5.2PL0 Copyright (c) Steve Scherf et al.
# Submitted via: ExactAudioCopyFreeDBPlugin 1.0
#
DISCID=4d11bd17
DTITLE=Various Artist - The Complete Stax-Volt Singles, 1959-1975
DYEAR=1993
DGENRE=Soul
TTITLE0=Eddie Floyd - My Girl
TTITLE1=Mavis Staples - I Have Learned to Do Without You
TTITLE2=T.S.U. Toronadoes - Play the Music Toronadoes
TTITLE3=William Bell - Lonely Soldier
TTITLE4=The Emotions - Heart Association
TTITLE5=Isaac Hayes - I Stand Accused
TTITLE6=The Staple Singers - Brand New Day
TTITLE7=Margie Joseph - Sweeter Tomorrow
TTITLE8=Bernie Hayes - Cool Strut
TTITLE9=The Newcomers - You Put the Sunshine Back in My World
TTITLE10=The Bar-Kays - Montego Bay
TTITLE11=Rudy Robinson and The Hungry Five - Got it Together (Parts 1 An
TTITLE11=d 2)
TTITLE12=Little Sonny - Wade in the Water
TTITLE13=The Nightingales - You're Movin' Much Too Fast
TTITLE14=Eddie Floyd - The Best Years of My Life
TTITLE15=Johnnie Taylor - I Am Somebody (Part 2)
TTITLE16=Carla Thomas - I Loved You Like I Love My Very Life
TTITLE17=Reggie Milner - Soul Machine
TTITLE18=The Temprees - (Follow Her) Rules and Regulations
TTITLE19=Rufus Thomas - (Do The) Push and Pull (Part 1)
TTITLE20=Charlene and The Soul Serenaders - Love Changes
TTITLE21=The Soul Children - Put Your World in My World (Best of Two W
TTITLE21=orlds)
TTITLE22=The Staple Singers - Love is Plentiful
EXTD=
EXTT0=
EXTT1=
EXTT2=
EXTT3=
EXTT4=
EXTT5=
EXTT6=
EXTT7=
EXTT8=
EXTT9=
EXTT10=
EXTT11=
EXTT12=
EXTT13=
EXTT14=
EXTT15=
EXTT16=
EXTT17=
EXTT18=
EXTT19=
EXTT20=
EXTT21=
EXTT22=
PLAYORDER=
